<?xml version="1.0"?>
<svg xmlns="http://www.w3.org/2000/svg" id="Layer_1" data-name="Layer 1" viewBox="0 0 512 512" width="512" height="512"><title>Innovative</title><path d="M408.46,246.91c0,38.67-16.15,73.64-41.99,100.03-27.78,27.62-40.7,62.6-35.53,100.04v.61H179.13c5.17-36.82-7.75-74.26-34.88-101.26a139.97,139.97,0,0,1-41.34-101.87c1.29-76.72,69.76-141.77,150.51-143C338.69,100.24,408.46,165.9,408.46,246.91Zm-42.27,38.01a17.442,17.442,0,0,0-17.44-17.44,17.265,17.265,0,0,0-9.42,2.77q-3.7-5.5-8.29-11.11c20.54-25.16,28.6-49.82,18.46-64.61-8.84-12.89-29.63-15.59-55.25-9.4-9.39-24.64-23.38-40.27-39.01-40.27a23.406,23.406,0,0,0-6.17.83,17.434,17.434,0,1,0-25.41,23.55l-.08.09a114.841,114.841,0,0,0-7.35,15.8c-25.62-6.19-46.41-3.49-55.24,9.4-10.14,14.79-2.09,39.45,18.45,64.61q-4.29,5.265-7.84,10.46a17.441,17.441,0,1,0-14.32,31.7v.01c-1.54,8.7-.44,16.39,3.71,22.44,8.83,12.89,29.63,15.59,55.25,9.4,9.39,24.64,23.38,40.26,39,40.26s29.62-15.62,39-40.26c25.63,6.19,46.42,3.49,55.26-9.4,4.07-5.94,5.21-13.47,3.78-21.99v-.01A17.424,17.424,0,0,0,366.19,284.92Z" style="fill:#00acea"/><path d="M339.33,270.25a17.265,17.265,0,0,1,9.42-2.77,17.456,17.456,0,1,1-9.42,2.77Z" style="fill:#00efd1"/><path d="M353.28,301.76c1.43,8.52.29,16.05-3.78,21.99-8.84,12.89-29.63,15.59-55.26,9.4,5.18-13.56,8.96-29.84,10.84-47.76a206.471,206.471,0,0,0,25.96-26.25q4.575,5.6,8.29,11.11a17.431,17.431,0,0,0,13.95,31.5Z" style="fill:#00acea"/><path d="M349.5,194.53c10.14,14.79,2.08,39.45-18.46,64.61a205.854,205.854,0,0,0-25.96-26.26c-1.89-17.91-5.66-34.19-10.83-47.75C319.87,178.94,340.66,181.64,349.5,194.53Z" style="fill:#00acea"/><polygon points="322.85 447.65 322.85 498.96 189.15 498.96 189.15 447.65 189.15 447.59 322.85 447.59 322.85 447.65" style="fill:#fedb41"/><path d="M305.08,232.88a205.854,205.854,0,0,1,25.96,26.26,206.471,206.471,0,0,1-25.96,26.25,254.108,254.108,0,0,0,0-52.51Z" style="fill:#00acea"/><path d="M305.08,232.88a254.108,254.108,0,0,1,0,52.51,251.4,251.4,0,0,1-20.89,15.97,246.217,246.217,0,0,1-28.95,17.12,246.931,246.931,0,0,1-28.94-17.12,251.331,251.331,0,0,1-20.89-15.96,254.2,254.2,0,0,1,0-52.52,253.076,253.076,0,0,1,20.89-15.97,244.731,244.731,0,0,1,28.95-17.11,246.817,246.817,0,0,1,28.94,17.11A251.4,251.4,0,0,1,305.08,232.88Zm-32.4,26.26a17.44,17.44,0,1,0-17.44,17.44A17.442,17.442,0,0,0,272.68,259.14Z" style="fill:#00acea"/><path d="M294.25,185.13c5.17,13.56,8.94,29.84,10.83,47.75a251.4,251.4,0,0,0-20.89-15.97,246.817,246.817,0,0,0-28.94-17.11A184.409,184.409,0,0,1,294.25,185.13Z" style="fill:#00acea"/><path d="M305.08,285.39c-1.88,17.92-5.66,34.2-10.84,47.76a184.755,184.755,0,0,1-39-14.67,246.217,246.217,0,0,0,28.95-17.12A251.4,251.4,0,0,0,305.08,285.39Z" style="fill:#00acea"/><path d="M255.24,144.86c15.63,0,29.62,15.63,39.01,40.27a184.409,184.409,0,0,0-39,14.67,184.549,184.549,0,0,0-39.02-14.67,114.841,114.841,0,0,1,7.35-15.8l.08-.09a17.434,17.434,0,0,0,25.41-23.55A23.406,23.406,0,0,1,255.24,144.86Z" style="fill:#00acea"/><path d="M294.24,333.15c-9.38,24.64-23.37,40.26-39,40.26s-29.61-15.62-39-40.26a184.755,184.755,0,0,0,39-14.67A184.755,184.755,0,0,0,294.24,333.15Z" style="fill:#00acea"/><circle cx="255.24" cy="259.14" r="17.44" style="fill:#00efd1"/><path d="M249.07,145.69a17.437,17.437,0,1,1-14.05-7.1A17.346,17.346,0,0,1,249.07,145.69Z" style="fill:#00efd1"/><path d="M255.25,199.8a244.731,244.731,0,0,0-28.95,17.11,253.076,253.076,0,0,0-20.89,15.97c1.89-17.91,5.66-34.2,10.82-47.75A184.549,184.549,0,0,1,255.25,199.8Z" style="fill:#00acea"/><path d="M226.3,301.36a246.931,246.931,0,0,0,28.94,17.12,184.755,184.755,0,0,1-39,14.67c-5.17-13.55-8.95-29.84-10.83-47.75A251.331,251.331,0,0,0,226.3,301.36Z" style="fill:#00acea"/><path d="M216.23,185.13c-5.16,13.55-8.93,29.84-10.82,47.75a205.316,205.316,0,0,0-25.97,26.26c-20.54-25.16-28.59-49.82-18.45-64.61C169.82,181.64,190.61,178.94,216.23,185.13Z" style="fill:#00acea"/><path d="M205.41,285.4c1.88,17.91,5.66,34.2,10.83,47.75-25.62,6.19-46.42,3.49-55.25-9.4-4.15-6.05-5.25-13.74-3.71-22.44v-.01a17.441,17.441,0,0,0,14.32-31.7q3.54-5.19,7.84-10.46A206.617,206.617,0,0,0,205.41,285.4Z" style="fill:#00acea"/><path d="M205.41,232.88a254.2,254.2,0,0,0,0,52.52,206.617,206.617,0,0,1-25.97-26.26A205.316,205.316,0,0,1,205.41,232.88Z" style="fill:#00acea"/><path d="M171.6,269.6a17.453,17.453,0,1,1-8.35-2.12A17.458,17.458,0,0,1,171.6,269.6Z" style="fill:#00efd1"/><path d="M253.3,93.461a163.7,163.7,0,0,0-110.441,45.391C112.6,167.6,95.572,205.058,94.912,244.315a149.128,149.128,0,0,0,43.695,107.891C162.111,375.6,174.289,408,171.938,440H162.98a8,8,0,0,0,0,16H181v42.96a8.163,8.163,0,0,0,8.15,8.04h133.7a8.163,8.163,0,0,0,8.15-8.04V456h18.02a8,8,0,0,0,0-16H338.174c-2.635-33,9.018-62.407,33.937-87.182.025-.025.05-.153.076-.178,28.55-29.159,44.273-66.723,44.273-105.679,0-40.028-16.086-77.957-45.3-106.752C339.951,109.439,298.109,92.8,253.3,93.461ZM315,491H197V456H315Zm45.792-149.49C333.167,369,319.636,403,322.146,440H187.967c2.306-37-11.557-72.746-38.081-99.143a132.83,132.83,0,0,1-38.977-96.16c.588-34.942,15.847-68.427,42.969-94.195a147.762,147.762,0,0,1,99.656-41.017c40.463-.575,78.258,14.366,106.4,42.105,26.135,25.765,40.529,59.717,40.529,95.429C400.46,281.748,386.372,315.366,360.792,341.51Z" style="fill:#083863"/><path d="M252,61.18a8,8,0,0,0,8-8V13.04a8,8,0,0,0-16,0V53.18A8,8,0,0,0,252,61.18Z" style="fill:#083863"/><path d="M439.072,90.692l-36.51,31.73a8,8,0,1,0,10.5,12.076l36.509-31.73a8,8,0,1,0-10.5-12.076Z" style="fill:#083863"/><path d="M102.249,130.94a8,8,0,0,0,5.522-13.79L73.2,84.19A8,8,0,1,0,62.16,95.77l34.569,32.96A7.975,7.975,0,0,0,102.249,130.94Z" style="fill:#083863"/><path d="M356.1,190.005c-9.689-14.127-30.258-19.129-56.992-14.095C288.13,151,272.37,136.86,255.24,136.86a31.159,31.159,0,0,0-3.3.192,25.426,25.426,0,0,0-37.949,33.273q-1.352,2.7-2.623,5.584c-26.739-5.033-47.3-.029-56.976,14.1-11.407,16.638-5.951,41.622,14.881,69.14-.23.305-.458.608-.684.912a25.414,25.414,0,0,0-19.878,45.7c-.505,8.6,1.42,16.3,5.679,22.51,7.226,10.549,20.512,16.017,37.911,16.016a103.586,103.586,0,0,0,19.085-1.912c10.973,24.9,26.73,39.035,43.854,39.035s32.892-14.133,43.854-39.029a104.665,104.665,0,0,0,19.506,2c17.249,0,30.2-5.458,37.5-16.105,4.1-5.982,6.033-13.347,5.719-21.555a25.416,25.416,0,0,0-19.689-46.35c-.3-.408-.612-.815-.921-1.224C362.043,231.622,367.5,206.64,356.1,190.005ZM289.156,323.487a167.822,167.822,0,0,1-16.019-5.638q7.868-4.615,15.578-9.892,2.751-1.887,5.442-3.836A174.338,174.338,0,0,1,289.156,323.487Zm-67.83,0a175,175,0,0,1-5-19.366q2.691,1.945,5.447,3.839,7.685,5.267,15.571,9.888A167.869,167.869,0,0,1,221.326,323.486Zm0-128.695a167.8,167.8,0,0,1,16.02,5.637q-7.854,4.606-15.568,9.885-2.744,1.883-5.438,3.834A175.714,175.714,0,0,1,221.322,194.791ZM196.136,265.8q-3.224-3.308-6.185-6.661,2.961-3.354,6.185-6.665-.084,3.327-.086,6.667T196.136,265.8Zm34.689,28.964c-6.224-4.269-12.167-8.773-17.753-13.4-.665-7.273-1.022-14.725-1.022-22.222s.357-14.948,1.022-22.221c5.653-4.681,11.6-9.191,17.75-13.41a239.753,239.753,0,0,1,24.424-14.724,241.129,241.129,0,0,1,24.419,14.722c6.192,4.247,12.137,8.756,17.753,13.41.665,7.271,1.022,14.723,1.022,22.223s-.357,14.94-1.022,22.213c-5.616,4.654-11.561,9.162-17.751,13.408a240.879,240.879,0,0,1-24.426,14.732A241.607,241.607,0,0,1,230.825,294.763Zm58.336-99.971a175.037,175.037,0,0,1,4.99,19.353q-2.69-1.946-5.439-3.833c-5.11-3.5-10.314-6.8-15.567-9.882A167.445,167.445,0,0,1,289.161,194.792Zm25.193,57.692q3.219,3.3,6.174,6.654-2.955,3.347-6.174,6.651.084-3.318.086-6.649T314.354,252.484Zm28.548-53.43c6.605,9.633,1.773,27.706-12.244,47.406a220.8,220.8,0,0,0-17.977-17.57,210.049,210.049,0,0,0-7.889-37.745C323.362,188.107,337.313,190.905,342.9,199.054Zm-59.578-19.223a198.288,198.288,0,0,0-28.075,11.075,203.667,203.667,0,0,0-23.894-9.735,25.29,25.29,0,0,0,29.1-25.151c0-.769-.043-1.531-.11-2.289C268.562,156.487,276.7,165.716,283.324,179.831Zm-48.3-33.241a9.435,9.435,0,1,1,0,18.87,9.251,9.251,0,0,1-6.152-2.293,9.43,9.43,0,0,1,6.152-16.577Zm-67.43,52.461c5.581-8.147,19.525-10.944,38.1-7.905a210.2,210.2,0,0,0-7.882,37.742,219.985,219.985,0,0,0-17.988,17.572C165.809,226.764,160.981,208.69,167.59,199.051Zm-4.34,76.429a9.435,9.435,0,1,1,0,18.87,9.372,9.372,0,0,1-3.229-.566,9.436,9.436,0,0,1,3.229-18.3Zm4.337,43.744a17.723,17.723,0,0,1-2.894-8.917,25.348,25.348,0,0,0,23.614-29.7q4.548,4.45,9.5,8.784a209.145,209.145,0,0,0,7.888,37.747C187.122,330.175,173.172,327.377,167.587,319.224ZM255.24,365.41c-9.878,0-20.074-9.924-28.075-26.963a198.581,198.581,0,0,0,28.075-11.073,198.462,198.462,0,0,0,28.078,11.073C275.323,355.485,265.126,365.41,255.24,365.41Zm49.547-38.275a208.85,208.85,0,0,0,7.9-37.756q5.982-5.237,11.389-10.653a25.439,25.439,0,0,0,21.74,31.449,17.778,17.778,0,0,1-2.91,9.051C337.315,327.373,323.365,330.17,304.787,327.135Zm53.4-42.215a9.433,9.433,0,0,1-6.989,9.1,9.3,9.3,0,0,1-2.451.325,9.429,9.429,0,0,1-5.1-17.368l.025-.015a9.312,9.312,0,0,1,5.074-1.487A9.451,9.451,0,0,1,358.19,284.92Z" style="fill:#083863"/><path d="M255.24,233.7a25.44,25.44,0,1,0,25.44,25.44A25.468,25.468,0,0,0,255.24,233.7Zm0,34.88a9.44,9.44,0,1,1,9.44-9.44A9.451,9.451,0,0,1,255.24,268.58Z" style="fill:#083863"/></svg>
